<?xml version="1.0" encoding="utf-8"?>
<!-- Generator: Adobe Illustrator 15.0.0, SVG Export Plug-In . SVG Version: 6.00 Build 0)  -->
<!DOCTYPE svg PUBLIC "-//W3C//DTD SVG 1.1//EN" "http://www.w3.org/Graphics/SVG/1.1/DTD/svg11.dtd">
<svg version="1.1" id="Calque_1" xmlns="http://www.w3.org/2000/svg" xmlns:xlink="http://www.w3.org/1999/xlink" x="0px" y="0px"
	 width="50.938px" height="100px" viewBox="24.643 -0.225 50.938 100" enable-background="new 24.643 -0.225 50.938 100"
	 xml:space="preserve">
<g id="guides">
</g>
<g id="Captions">
</g>
<g id="Your_Icon">
</g>
<g>
	<rect x="32.245" y="56.82" fill="#800000" width="5.389" height="7.26"/>
	<rect x="38.987" y="51.972" fill="#800000" width="5.387" height="12.108"/>
	<rect x="45.722" y="54.397" fill="#800000" width="5.392" height="9.683"/>
	<rect x="52.458" y="51.972" fill="#800000" width="5.387" height="12.108"/>
	<rect x="59.196" y="49.55" fill="#800000" width="5.393" height="14.53"/>
	<path fill="#800000" d="M31.612,54.28c0.211,0.277,0.483,0.479,0.776,0.599c0.521,0.221,1.108,0.183,1.56-0.149l13.218-9.833
		l3.759,5.496c0.27,0.409,0.682,0.682,1.141,0.765c0.458,0.072,0.92-0.045,1.276-0.346l9.741-8.209l3.527,4.047l1.447-8.44
		c0.198-0.377,0.271-0.809,0.213-1.222l0.268-1.515l-1.454,0.088c-0.343-0.097-0.715-0.069-1.064,0.065l-8.832,0.542l3.544,3.821
		l-8.134,6.865l-3.706-5.409c-0.271-0.387-0.68-0.646-1.134-0.717c-0.451-0.081-0.915,0.03-1.28,0.308l-14.659,10.93
		C31.113,52.488,31.021,53.525,31.612,54.28"/>
</g>
<g id="Layer_5">
</g>
<g id="Layer_6">
</g>
<g id="Layer_4">
</g>
<g id="Layer_16">
</g>
<g id="Layer_15">
</g>
<g id="Layer_14">
</g>
<g id="Layer_13">
</g>
<g id="Layer_12">
</g>
<g id="Layer_11">
</g>
<g id="Layer_10">
</g>
<g id="Layer_9">
</g>
<path fill="#800000" d="M67.743-0.225H32.479c-4.328,0-7.837,3.508-7.837,7.836v84.327c0,4.328,3.509,7.837,7.837,7.837h35.264
	c4.328,0,7.837-3.509,7.837-7.837V7.611C75.58,3.283,72.071-0.225,67.743-0.225z M46.258,8.09h7.708
	c0.575,0,1.043,0.468,1.043,1.045c0,0.576-0.468,1.043-1.043,1.043h-7.708c-0.577,0-1.045-0.467-1.045-1.043
	C45.213,8.558,45.681,8.09,46.258,8.09z M41.766,7.69c0.687,0,1.244,0.558,1.244,1.244s-0.558,1.243-1.244,1.243
	c-0.688,0-1.244-0.557-1.244-1.243S41.079,7.69,41.766,7.69z M50.111,95.547c-2.705,0-4.898-2.191-4.898-4.896
	c0-2.706,2.193-4.898,4.898-4.898s4.897,2.192,4.897,4.898C55.009,93.355,52.816,95.547,50.111,95.547z M71.661,82.264h-43.1V17.286
	h43.1V82.264z"/>
</svg>
