<?xml version="1.0" encoding="utf-8"?>
<!-- Generator: Adobe Illustrator 15.0.0, SVG Export Plug-In . SVG Version: 6.00 Build 0)  -->
<!DOCTYPE svg PUBLIC "-//W3C//DTD SVG 1.1//EN" "http://www.w3.org/Graphics/SVG/1.1/DTD/svg11.dtd">
<svg version="1.1" id="Layer_1" xmlns="http://www.w3.org/2000/svg" xmlns:xlink="http://www.w3.org/1999/xlink" x="0px" y="0px"
	 width="98.203px" height="100px" viewBox="0 0 98.203 100" enable-background="new 0 0 98.203 100" xml:space="preserve">
<g>
	<path fill="#800000" d="M16.374,74.926L4.256,86.292C0.432,89.88-1.098,94.463,0.84,96.529c1.936,2.064,6.607,0.832,10.432-2.758
		l8.112-7.608L16.374,74.926z"/>
</g>
<circle fill="#800000" cx="53.349" cy="91.323" r="8.677"/>
<path fill="#800000" d="M68.873,90.473L45.687,42.681c1.017-0.936,1.658-2.275,1.658-3.766c0-2.833-2.296-5.128-5.128-5.128h-5.915
	L23.579,21.064c-1.304-2.309-4.215-3.919-7.604-3.919c-4.605,0-8.338,2.969-8.338,6.63v33.771h5.924l7.488,27.942l0.042-0.012
	l2.654,9.903c0.733,2.736,3.549,4.358,6.292,3.623c2.741-0.733,4.369-3.546,3.636-6.282l-2.654-9.904l-6.771-25.271h0.066V36.394
	l7.648,7.648h10.255c0.054,0,0.106-0.006,0.16-0.008l23.285,47.997l0,0l1.559,3.211l27.408-13.299l-1.558-3.211L68.873,90.473z"/>
<polygon fill="#800000" points="83.018,80.718 72.919,59.9 71.089,60.789 67.723,53.85 56.287,59.396 69.751,87.154 "/>
<polygon fill="#800000" points="74.23,59.264 84.33,80.081 98.203,73.352 84.736,45.595 73.3,51.145 76.666,58.083 "/>
<path fill="#800000" d="M37.216,5.521h-7.553C28.506,2.304,25.438,0,21.823,0c-4.605,0-8.338,3.732-8.338,8.337
	s3.733,8.338,8.338,8.338c3.622,0,6.696-2.313,7.846-5.541C34.052,10.358,37.216,8.138,37.216,5.521z"/>
</svg>
