<?xml version="1.0" encoding="utf-8"?>
<!-- Generator: Adobe Illustrator 16.0.0, SVG Export Plug-In . SVG Version: 6.00 Build 0)  -->
<!DOCTYPE svg PUBLIC "-//W3C//DTD SVG 1.1//EN" "http://www.w3.org/Graphics/SVG/1.1/DTD/svg11.dtd">
<svg version="1.1" id="Calque_1" xmlns="http://www.w3.org/2000/svg" xmlns:xlink="http://www.w3.org/1999/xlink" x="0px" y="0px"
	 width="253.136px" height="71.563px" viewBox="1.529 1.53 253.136 71.563" enable-background="new 1.529 1.53 253.136 71.563"
	 xml:space="preserve">
<circle fill="#800D07" cx="37.311" cy="37.312" r="35.782"/>
<path fill="#FFFFFF" d="M24.515,15.531c0-0.455,0.325-0.846,0.844-0.846c0.39,0,0.78,0.391,0.78,0.846v18.123
	c0,6.236,5.001,11.238,11.107,11.238c6.171,0,11.172-5.002,11.172-11.238V15.531c0-0.455,0.455-0.846,0.845-0.846
	c0.455,0,0.844,0.391,0.844,0.846v18.123c0,7.145-5.78,12.859-12.86,12.859c-7.015,0-12.731-5.715-12.731-12.859V15.531z"/>
<g>
	<path fill="#FFFFFF" d="M36.499,45.447c0-0.189,0.325-0.353,0.845-0.353c0.455,0,0.779,0.162,0.779,0.353v18.286
		c0,0.189-0.324,0.353-0.779,0.353c-0.52,0-0.845-0.162-0.845-0.353V45.447z"/>
</g>
<g>
	<path fill="#FFFFFF" stroke="#FFFFFF" stroke-miterlimit="10" d="M46.912,32.781c0,0-5.069,0.01-7.927-1.717
		c-6.54-3.82-11.042-1.709-11.151-1.615c-0.546,6.109,0.318,13.465,9.75,13.776C45.837,43.144,46.981,35.08,46.912,32.781z"/>
</g>
<text transform="matrix(1 0 0 1 86.834 54.5908)" fill="#FFFFFF" font-family="'Quicksand-Regular'" font-size="62">vinify</text>
</svg>
