<?xml version="1.0" encoding="utf-8"?>
<!-- Generator: Adobe Illustrator 15.0.0, SVG Export Plug-In . SVG Version: 6.00 Build 0)  -->
<!DOCTYPE svg PUBLIC "-//W3C//DTD SVG 1.1//EN" "http://www.w3.org/Graphics/SVG/1.1/DTD/svg11.dtd">
<svg version="1.1" id="Layer_1" xmlns="http://www.w3.org/2000/svg" xmlns:xlink="http://www.w3.org/1999/xlink" x="0px" y="0px"
	 width="78.68px" height="102.428px" viewBox="-12.706 -23.011 78.68 102.428"
	 enable-background="new -12.706 -23.011 78.68 102.428" xml:space="preserve">
<g>
	<path fill="#800000" d="M13.309,14.987H-6.855c-3.231,0-5.851,2.618-5.851,5.85v27.439c0,3.231,2.62,5.853,5.851,5.853h0.033
		v19.437c0,3.23,2.546,5.852,5.689,5.852h8.721c3.141,0,5.688-2.62,5.688-5.852V54.129h0.032c3.23,0,5.852-2.62,5.852-5.853V20.837
		C19.159,17.605,16.54,14.987,13.309,14.987z"/>
	<circle fill="#800000" cx="3.227" cy="3.55" r="9.55"/>
</g>
<path fill="#800000" d="M57.943-3.246c-0.094,0.235-1.732,0.424-3.757,0.424c-2.025,0-3.664-0.19-3.754-0.425
	c-0.008,0.018-0.017,0.034-0.017,0.064v5.297c0,0.178,0.144,0.322,0.32,0.322h0.132h6.64h0.132c0.177,0,0.32-0.144,0.32-0.322
	v-5.297C57.96-3.212,57.951-3.229,57.943-3.246z"/>
<ellipse fill="#800000" cx="54.188" cy="-3.401" rx="3.698" ry="0.436"/>
<path fill="#800000" stroke="#121212" stroke-width="0.2459" stroke-miterlimit="10" d="M0.65,37.337V37.28
	C0.65,37.3,0.649,37.318,0.65,37.337z"/>
<path fill="#800000" d="M65.966,73.415V31.944c0-4.894-2.11-9.201-5.307-11.705c-0.334-0.5-2.61-4.11-3.151-10.753
	c0-1.454,0-4.366,0-6.753h-6.639c0,2.387,0,5.299,0,6.753c-0.542,6.644-2.816,10.255-3.151,10.753
	c-3.196,2.505-5.305,6.811-5.305,11.705v41.471c-0.022,0.116,0,0.238,0,0.357c0,2.567,5.25,4.644,11.776,4.644
	c6.525,0,11.772-2.076,11.772-4.644C65.961,73.653,65.987,73.53,65.966,73.415z M64.865,55.997v0.002
	c-0.004,1.238-4.784,2.239-10.678,2.239c-5.896,0-10.676-1.002-10.679-2.239l0,0v-0.002V37.036c0,1.238,4.781,2.008,10.68,2.008
	c5.896,0,10.677-0.77,10.677-2.008V55.997L64.865,55.997z"/>
<path fill="#800000" d="M30.634,0.321c1.006-1.006,6.75-6.752,10.34-10.343c3.217-3.216,3.148-7.906,0.223-10.815
	c-2.924-2.909-7.654-2.897-10.563,0.028c-2.909-2.925-7.639-2.938-10.563-0.028c-2.925,2.909-2.994,7.599,0.223,10.815
	C23.885-6.432,29.628-0.685,30.634,0.321z"/>
</svg>
