<?xml version="1.0" encoding="utf-8"?>
<!-- Generator: Adobe Illustrator 16.0.0, SVG Export Plug-In . SVG Version: 6.00 Build 0)  -->
<!DOCTYPE svg PUBLIC "-//W3C//DTD SVG 1.1//EN" "http://www.w3.org/Graphics/SVG/1.1/DTD/svg11.dtd">
<svg version="1.1" xmlns="http://www.w3.org/2000/svg" xmlns:xlink="http://www.w3.org/1999/xlink" x="0px" y="0px" width="127px"
	 height="127px" viewBox="-24 -13 127 127" enable-background="new -24 -13 127 127" xml:space="preserve">
<g id="circle">
	<circle fill="#800000" cx="39.5" cy="50.5" r="63.5"/>
</g>
<g id="Layer_1">
	<g>
		<g>
			<path fill="#FFFFFF" d="M27.632,34.601H9.915c-2.838,0-5.141,2.3-5.141,5.141v24.109c0,2.839,2.302,5.143,5.141,5.143h0.029
				v17.078c0,2.839,2.237,5.143,5,5.143h7.662c2.76,0,4.998-2.302,4.998-5.143V68.993h0.028c2.838,0,5.142-2.302,5.142-5.143V39.742
				C32.773,36.901,30.471,34.601,27.632,34.601z"/>
			<circle fill="#FFFFFF" cx="18.773" cy="24.552" r="8.391"/>
		</g>
		<path fill="#FFFFFF" d="M66.85,18.581c-0.083,0.207-1.521,0.372-3.302,0.372c-1.778,0-3.219-0.167-3.298-0.373
			c-0.007,0.016-0.015,0.03-0.015,0.056v4.655c0,0.156,0.126,0.282,0.28,0.282h0.117h5.834h0.115c0.155,0,0.282-0.126,0.282-0.282
			v-4.655C66.865,18.611,66.858,18.596,66.85,18.581z"/>
		<ellipse fill="#FFFFFF" cx="63.55" cy="18.445" rx="3.25" ry="0.383"/>
		<path fill="#FFFFFF" stroke="#121212" stroke-width="0.2459" stroke-miterlimit="10" d="M16.509,54.239v-0.05
			C16.509,54.207,16.508,54.222,16.509,54.239z"/>
		<path fill="#FFFFFF" d="M73.9,85.939V49.5c0-4.3-1.854-8.084-4.663-10.284c-0.293-0.439-2.294-3.611-2.769-9.449
			c0-1.277,0-3.835,0-5.934h-5.833c0,2.098,0,4.657,0,5.934c-0.477,5.838-2.475,9.011-2.77,9.449
			c-2.809,2.201-4.661,5.984-4.661,10.284v36.439c-0.02,0.103,0,0.209,0,0.314c0,2.255,4.613,4.08,10.347,4.08
			s10.344-1.824,10.344-4.08C73.895,86.148,73.917,86.041,73.9,85.939z M72.932,70.635v0.002c-0.004,1.088-4.203,1.967-9.383,1.967
			s-9.38-0.88-9.383-1.967l0,0v-0.002v-16.66c0,1.088,4.201,1.765,9.384,1.765c5.182,0,9.382-0.677,9.382-1.765V70.635
			L72.932,70.635z"/>
		<path fill="#FFFFFF" d="M42.855,21.714c0.884-0.884,5.931-5.933,9.085-9.087c2.826-2.826,2.767-6.946,0.195-9.502
			c-2.568-2.556-6.725-2.546-9.28,0.024c-2.557-2.57-6.712-2.581-9.282-0.024c-2.57,2.556-2.63,6.677,0.197,9.502
			C36.925,15.781,41.971,20.831,42.855,21.714z"/>
	</g>
</g>
</svg>
