<?xml version="1.0" encoding="utf-8"?>
<!-- Generator: Adobe Illustrator 16.0.0, SVG Export Plug-In . SVG Version: 6.00 Build 0)  -->
<!DOCTYPE svg PUBLIC "-//W3C//DTD SVG 1.1//EN" "http://www.w3.org/Graphics/SVG/1.1/DTD/svg11.dtd">
<svg version="1.1" xmlns="http://www.w3.org/2000/svg" xmlns:xlink="http://www.w3.org/1999/xlink" x="0px" y="0px" width="127px"
	 height="127px" viewBox="-14.398 -13.5 127 127" enable-background="new -14.398 -13.5 127 127" xml:space="preserve">
<g id="Layer_2">
	<circle fill="#800000" cx="49.102" cy="50" r="63.5"/>
</g>
<g id="Layer_1">
	<g>
		<path fill="#FFFFFF" d="M21.91,70.766L11.841,80.21c-3.177,2.98-4.449,6.789-2.838,8.506c1.609,1.715,5.489,0.69,8.667-2.292
			l6.74-6.321L21.91,70.766z"/>
	</g>
	<circle fill="#FFFFFF" cx="53.214" cy="90.114" r="8.399"/>
	<path fill="#FFFFFF" d="M65.529,83.683L46.265,43.975c0.845-0.778,1.377-1.89,1.377-3.129c0-2.354-1.908-4.26-4.261-4.26h-4.914
		L27.896,26.014c-1.083-1.918-3.502-3.256-6.317-3.256c-3.826,0-6.927,2.467-6.927,5.509v28.059h4.921l6.221,23.215l0.035-0.009
		l2.206,8.227c0.609,2.274,2.948,3.621,5.228,3.011c2.277-0.607,3.63-2.945,3.021-5.22l-2.205-8.229l-5.625-20.996h0.055V38.751
		l6.354,6.354h8.521c0.045,0,0.088-0.005,0.133-0.006L62.86,84.978l0,0l1.296,2.668l22.771-11.05l-1.294-2.667L65.529,83.683z"/>
	<polygon fill="#FFFFFF" points="77.281,75.577 68.891,58.282 67.37,59.021 64.572,53.255 55.072,57.864 66.258,80.926 	"/>
	<polygon fill="#FFFFFF" points="69.98,57.754 78.372,75.049 89.897,69.457 78.709,46.396 69.207,51.008 72.004,56.772 	"/>
	<path fill="#FFFFFF" d="M39.226,13.1h-6.275c-0.961-2.672-3.51-4.587-6.513-4.587c-3.827,0-6.928,3.102-6.928,6.927
		c0,3.826,3.102,6.928,6.928,6.928c3.009,0,5.563-1.922,6.519-4.604C36.597,17.119,39.226,15.275,39.226,13.1z"/>
</g>
</svg>
