<?xml version="1.0" encoding="utf-8"?>
<!-- Generator: Adobe Illustrator 16.0.0, SVG Export Plug-In . SVG Version: 6.00 Build 0)  -->
<!DOCTYPE svg PUBLIC "-//W3C//DTD SVG 1.1//EN" "http://www.w3.org/Graphics/SVG/1.1/DTD/svg11.dtd">
<svg version="1.1" xmlns="http://www.w3.org/2000/svg" xmlns:xlink="http://www.w3.org/1999/xlink" x="0px" y="0px" width="127px"
	 height="127px" viewBox="-38.031 -13.5 127 127" enable-background="new -38.031 -13.5 127 127" xml:space="preserve">
<g id="Circle">
	<circle fill="#800000" cx="25.469" cy="50" r="63.5"/>
</g>
<g id="Calque_1">
	<g id="guides">
	</g>
	<g id="Captions">
	</g>
	<g id="Your_Icon">
	</g>
	<g>
		<rect x="9.39" y="55.889" fill="#FFFFFF" width="4.85" height="6.535"/>
		<rect x="15.457" y="51.526" fill="#FFFFFF" width="4.849" height="10.897"/>
		<rect x="21.519" y="53.708" fill="#FFFFFF" width="4.851" height="8.716"/>
		<rect x="27.58" y="51.526" fill="#FFFFFF" width="4.85" height="10.897"/>
		<rect x="33.645" y="49.347" fill="#FFFFFF" width="4.854" height="13.077"/>
		<path fill="#FFFFFF" d="M8.82,53.604c0.191,0.249,0.435,0.431,0.7,0.539c0.469,0.199,0.997,0.165,1.404-0.132l11.896-8.852
			l3.383,4.947c0.243,0.368,0.612,0.614,1.025,0.688c0.413,0.065,0.828-0.041,1.148-0.311l8.768-7.389l3.174,3.643l1.303-7.596
			c0.18-0.34,0.244-0.729,0.192-1.101l0.242-1.362l-1.31,0.079c-0.31-0.087-0.644-0.062-0.959,0.059l-7.948,0.488l3.19,3.439
			l-7.32,6.178l-3.336-4.868c-0.243-0.349-0.611-0.582-1.02-0.646c-0.406-0.073-0.823,0.026-1.152,0.277L9.006,51.521
			C8.371,51.991,8.288,52.925,8.82,53.604"/>
	</g>
	<g id="Layer_5">
	</g>
	<g id="Layer_6">
	</g>
	<g id="Layer_4">
	</g>
	<g id="Layer_16">
	</g>
	<g id="Layer_15">
	</g>
	<g id="Layer_14">
	</g>
	<g id="Layer_13">
	</g>
	<g id="Layer_12">
	</g>
	<g id="Layer_11">
	</g>
	<g id="Layer_10">
	</g>
	<g id="Layer_9">
	</g>
	<path fill="#FFFFFF" d="M41.34,4.55H9.6c-3.896,0-7.053,3.157-7.053,7.052v75.892c0,3.897,3.157,7.056,7.053,7.056h31.74
		c3.894,0,7.052-3.158,7.052-7.056V11.602C48.392,7.707,45.234,4.55,41.34,4.55z M22.001,12.033h6.938
		c0.518,0,0.939,0.421,0.939,0.94c0,0.518-0.422,0.938-0.939,0.938h-6.938c-0.519,0-0.94-0.42-0.94-0.938
		C21.061,12.454,21.482,12.033,22.001,12.033z M17.959,11.673c0.618,0,1.12,0.502,1.12,1.12s-0.502,1.119-1.12,1.119
		c-0.619,0-1.121-0.501-1.121-1.119S17.342,11.673,17.959,11.673z M25.469,90.744c-2.435,0-4.408-1.974-4.408-4.407
		c0-2.436,1.973-4.407,4.408-4.407s4.407,1.972,4.407,4.407C29.878,88.771,27.904,90.744,25.469,90.744z M44.864,78.79H6.074V20.31
		h38.79V78.79z"/>
</g>
</svg>
